#!OML:ASF F:\VICON\USERDATA\INSTALL\rory3\rory3.ASF
:FULLY-SPECIFIED
:DEGREES
1786
root 3.29432 17.5333 -0.392709 5.81981 -13.8104 -0.0241938
lowerback 7.17009 1.1225 -4.28219
upperback 3.48701 1.20398 -0.15023
thorax -0.498939 0.551181 2.15788
lowerneck -21.1503 2.56431 -9.91617
upperneck 21.5166 7.56436 -2.91124
head 10.2008 2.25964 1.6769
rclavicle 1.5207e-014 1.59028e-014
rhumerus -20.3115 8.10112 -82.9759
rradius 57.6335
rwrist 15.0722
rhand -29.0127 4.14619
rfingers 7.12502
rthumb -2.36394 -25.8205
lclavicle 1.5207e-014 1.59028e-014
lhumerus -26.3355 -3.48196 85.1553
lradius 46.1593
lwrist 2.8297
lhand -18.1812 32.067
lfingers 7.12502
lthumb 8.09544 61.8919
rfemur -27.106 -8.26255 15.0539
rtibia 58.99
rfoot -17.0371 -11.1391
rtoes -4.6015
lfemur -21.7524 -0.858964 -23.9922
ltibia 34.595
lfoot -14.8702 -7.00726
ltoes -7.8791
1787
root 3.2629 17.5524 -0.337584 6.03237 -12.8743 -0.310465
lowerback 7.22683 1.03824 -4.02882
upperback 3.50574 1.10781 -0.061718
thorax -0.502297 0.505375 2.11386
lowerneck -20.7072 2.60224 -10.1906
upperneck 21.3663 7.66453 -3.04318
head 10.0616 2.28569 1.67447
rclavicle -8.64713e-015 -2.10712e-014
rhumerus -20.5719 8.426 -83.2203
rradius 56.7425
rwrist 15.2011
rhand -29.368 4.62808
rfingers 7.12502
rthumb -2.70713 -25.3345
lclavicle -8.64713e-015 -2.10712e-014
lhumerus -26.5011 -4.16471 85.5947
lradius 45.9603
lwrist 3.87209
lhand -17.9269 31.5749
lfingers 7.12502
lthumb 8.34085 61.3902
rfemur -27.4799 -7.87154 15.3906
rtibia 57.7292
rfoot -17.5693 -10.4294
rtoes -2.43451
lfemur -21.5521 -1.05995 -23.5706
ltibia 34.2944
lfoot -14.7476 -7.71647
ltoes -7.05317
1788
root 3.22796 17.5715 -0.280532 6.27036 -12.0402 -0.331221
lowerback 7.14779 0.932027 -4.17841
upperback 3.24397 0.957854 0.00460672
thorax -0.722002 0.437759 2.27697
lowerneck -19.226 2.81662 -10.3237
upperneck 21.0003 7.82571 -3.31262
head 9.66378 2.37164 1.58226
rclavicle -1.81888e-014 8.54774e-015
rhumerus -21.4536 9.2063 -83.6145
rradius 55.9145
rwrist 15.2263
rhand -29.5318 4.93562
rfingers 7.12502
rthumb -2.86534 -25.0249
lclavicle -1.81888e-014 8.54774e-015
lhumerus -27.2831 -4.6946 85.9983
lradius 46.0483
lwrist 4.83141
lhand -17.8656 30.7915
lfingers 7.12502
lthumb 8.40007 60.6044
rfemur -27.9419 -7.41915 15.4179
rtibia 56.3611
rfoot -18.0573 -9.66157
rtoes 0.388471
lfemur -21.4829 -1.18882 -23.4284
ltibia 34.0685
lfoot -14.7295 -8.49147
ltoes -6.37015
1789
root 3.18984 17.5904 -0.226022 6.46786 -11.189 -0.484335
lowerback 7.27181 0.963506 -4.06935
upperback 3.35674 1.00257 -0.0566285
thorax -0.674777 0.458806 2.14828
lowerneck -19.3658 2.76521 -10.266
upperneck 21.0758 7.80116 -3.45063
head 9.72789 2.34083 1.52742
rclavicle 2.29596e-014 1.74931e-014
rhumerus -21.5762 9.59933 -84.0514
rradius 55.0644
rwrist 15.2093
rhand -29.6609 4.41448
rfingers 7.12502
rthumb -2.99002 -25.5443
lclavicle 2.29596e-014 1.74931e-014
lhumerus -27.0228 -5.84774 86.2414
lradius 46.0988
lwrist 5.82963
lhand -17.8311 29.915
lfingers 7.12502
lthumb 8.43334 59.7266
rfemur -28.42 -6.92675 15.6455
rtibia 54.9996
rfoot -18.2994 -9.28269
rtoes -1.09139
lfemur -21.342 -1.30779 -23.1333
ltibia 33.7777
lfoot -14.7229 -9.15228
ltoes -5.77727
1790
root 3.15026 17.6063 -0.174163 6.70765 -10.2097 -0.596195
lowerback 7.43465 0.947017 -3.99218
upperback 3.43626 0.979182 -0.132714
thorax -0.678836 0.447406 2.02683
lowerneck -19.6135 2.70468 -10.1706
upperneck 21.2444 7.75915 -3.51754
head 9.84269 2.30511 1.49286
rclavicle 2.19657e-014 -1.51076e-014
rhumerus -21.7925 10.0704 -84.5567
rradius 54.2388
rwrist 15.2059
rhand -29.8239 4.319
rfingers 7.12502
rthumb -3.14742 -25.6375
lclavicle 2.19657e-014 -1.51076e-014
lhumerus -26.861 -7.01311 86.4402
lradius 46.2485
lwrist 6.64821
lhand -17.0554 29.7697
lfingers 7.12502
lthumb 9.18187 59.5498
rfemur -28.9495 -6.54872 15.8585
rtibia 53.6173
rfoot -18.2311 -9.0933
rtoes -4.2713
lfemur -21.2899 -1.4951 -22.8545
ltibia 33.4824
lfoot -14.5693 -9.94415
ltoes -3.59148
1791
root 3.10986 17.6246 -0.121786 6.97035 -9.23916 -0.719254
lowerback 7.55485 0.907954 -3.96386
upperback 3.50322 0.925378 -0.15467
thorax -0.671872 0.420114 1.99168
lowerneck -19.8244 2.64486 -10.1955
upperneck 21.4691 7.73412 -3.50472
head 9.96266 2.27429 1.50671
rclavicle -2.68359e-015 -5.96354e-015
rhumerus -21.9816 10.5992 -85.0373
rradius 53.3908
rwrist 15.3985
rhand -29.8124 4.55029
rfingers 7.12502
rthumb -3.13625 -25.4064
lclavicle -2.68359e-015 -5.96354e-015
lhumerus -26.8645 -8.25356 86.8536
lradius 46.1933
lwrist 8.40905
lhand -15.1068 31.7768
lfingers 7.12502
lthumb 11.0617 61.4653
rfemur -29.4901 -6.22421 16.0578
rtibia 52.2294
rfoot -17.7193 -9.42181
rtoes -5.97455
lfemur -21.2609 -1.66621 -22.5423
ltibia 33.1573
lfoot -14.3407 -10.7558
ltoes -1.94144
1792
root 3.07185 17.6426 -0.0711191 7.37209 -8.30823 -0.765921
lowerback 7.51041 0.85423 -4.0051
upperback 3.51988 0.854608 -0.16527
thorax -0.625807 0.38375 2.01029
lowerneck -19.8057 2.57873 -10.3534
upperneck 21.552 7.68542 -3.45557
head 9.98414 2.24068 1.54304
rclavicle 2.18663e-014 -1.98785e-015
rhumerus -22.2409 11.2038 -85.5087
rradius 52.7351
rwrist 15.7843
rhand -29.4961 4.10244
rfingers 7.12502
rthumb -2.8308 -25.8585
lclavicle 2.18663e-014 -1.98785e-015
lhumerus -26.7346 -8.85018 87.0713
lradius 46.401
lwrist 7.28748
lhand -16.5501 28.1677
lfingers 7.12502
lthumb 9.66945 57.9257
rfemur -30.2041 -5.83888 16.0959
rtibia 50.8718
rfoot -17.4336 -9.44716
rtoes -5.64102
lfemur -21.3859 -1.84204 -22.3167
ltibia 32.7944
lfoot -14.1799 -11.3924
ltoes -2.12856
1793
root 3.03905 17.6603 -0.0250649 7.83697 -7.32125 -0.440609
lowerback 7.49919 0.761476 -4.29163
upperback 3.43903 0.710222 -0.30136
thorax -0.694516 0.312886 2.04196
lowerneck -19.527 2.54571 -10.4537
upperneck 21.457 7.62515 -3.46596
head 9.89858 2.21674 1.53936
rclavicle 1.10325e-014 1.35174e-014
rhumerus -22.5731 11.8224 -86.0596
rradius 52.0656
rwrist 16.6251
rhand -28.9126 3.14962
rfingers 7.12502
rthumb -2.26729 -26.8181
lclavicle 1.10325e-014 1.35174e-014
lhumerus -26.7827 -9.80792 87.4507
lradius 46.4165
lwrist 7.46384
lhand -17.2716 26.1708
lfingers 7.12502
lthumb 8.97323 55.96
rfemur -31.0803 -5.57849 15.6459
rtibia 49.5472
rfoot -17.3623 -8.83628
rtoes -5.75924
lfemur -21.6171 -2.06915 -22.5113
ltibia 32.3768
lfoot -13.8882 -12.0888
ltoes -1.70141
1794
root 3.00347 17.6746 0.0195607 8.27157 -6.32779 -0.125951
lowerback 7.60383 0.658892 -4.58667
upperback 3.36198 0.545225 -0.449523
thorax -0.82113 0.233164 2.06686
lowerneck -19.3698 2.54325 -10.3773
upperneck 21.4473 7.61172 -3.6042
head 9.87712 2.20456 1.47433
rclavicle -1.63003e-014 1.59028e-014
rhumerus -22.7121 12.4771 -86.6908
rradius 51.0593
rwrist 17.6414
rhand -28.5336 2.61322
rfingers 7.12502
rthumb -1.90123 -27.3581
lclavicle -1.63003e-014 1.59028e-014
lhumerus -26.9003 -10.8769 87.869
lradius 46.3243
lwrist 8.08769
lhand -16.1484 27.0463
lfingers 7.12502
lthumb 10.057 56.786
rfemur -31.9019 -5.37354 15.2115
rtibia 48.1879
rfoot -17.2496 -8.33755
rtoes -6.41224
lfemur -21.8053 -2.31583 -22.6791
ltibia 31.948
lfoot -13.6806 -12.7701
ltoes -1.38088
1795
root 2.96424 17.6881 0.0621676 8.66951 -5.27887 -0.122084
lowerback 7.76112 0.551384 -4.60829
upperback 3.37415 0.393083 -0.489788
thorax -0.884653 0.158948 2.04929
lowerneck -19.4157 2.51981 -10.4283
upperneck 21.52 7.61426 -3.62064
head 9.91176 2.19441 1.47928
rclavicle 4.17448e-015 2.14687e-014
rhumerus -22.7128 13.1812 -87.2941
rradius 50.0373
rwrist 18.4037
rhand -28.6012 3.00441
rfingers 7.12502
rthumb -1.96652 -26.9663
lclavicle 4.17448e-015 2.14687e-014
lhumerus -26.922 -11.9305 88.3013
lradius 46.2737
lwrist 8.48706
lhand -13.7983 30.0462
lfingers 7.12502
lthumb 12.3236 59.663
rfemur -32.535 -5.04103 15.0847
rtibia 46.7177
rfoot -17.2987 -7.87805
rtoes -5.91827
lfemur -21.9642 -2.5558 -22.4889
ltibia 31.5728
lfoot -13.7287 -13.4096
ltoes -2.05623
